<svg id="OBJECTS" xmlns="http://www.w3.org/2000/svg" viewBox="0 0 500 500"><defs><style>.cls-1{fill:#033479;}.cls-2{fill:#fff;}</style></defs><path class="cls-1" d="M424.16,219.83a201.9,201.9,0,0,1,1.3,22.8c0,107-83.89,194.46-189.5,200.14a8.88,8.88,0,0,1-9.28-10.22L255.23,250Z"/><path class="cls-1" d="M250,408.14a176.42,176.42,0,0,1-19.34-1.06l-2.42,15.51q7,.56,14.26.55c100.61,0,182.24-81.2,183-181.65,0-1.28,0-2.56-.06-3.83A175.46,175.46,0,0,1,250,408.14Z"/><circle class="cls-1" cx="250" cy="232.68" r="175.46"/><path class="cls-2" d="M121.55,307.67c0-24.47,6.59-40,25.88-62.42,19.76-23.15,25.41-34.83,25.41-50.13,0-14.82-5.18-18.24-13.41-17.32s-13.41,6-13.41,17.73v17.64l-24.47,2.73v-16c0-26.35,13.17-42.88,38.58-45.71s38.59,10.75,38.59,37.1c0,19.53-8,37.36-32,65.45-15.53,18.21-19.53,27.36-19.53,38.89v3.53l49.18-5.49V317.2l-74.82,8.35Z"/><path class="cls-2" d="M205.07,277.17V190.58c0-26.35,13.88-43,39.29-45.79s39.3,10.67,39.3,37V268.4c0,26.35-13.89,43-39.3,45.79S205.07,303.52,205.07,277.17Zm52.71-4.24V183.05c0-11.76-5.18-15.65-13.42-14.73s-13.41,6-13.41,17.73v89.88c0,11.76,5.18,15.65,13.41,14.73S257.78,284.7,257.78,272.93Z"/><path class="cls-2" d="M305.71,295.57V268.46c0-8.25,4.35-13.45,12.31-14.34s12.3,3.34,12.3,11.59v27.11c0,8.25-4.35,13.45-12.3,14.34S305.71,303.82,305.71,295.57Zm16.51-1.33V266.1c0-3.68-1.62-4.9-4.2-4.61s-4.2,1.87-4.2,5.55v28.14c0,3.68,1.62,4.9,4.2,4.61S322.22,297.92,322.22,294.24Z"/><path class="cls-2" d="M335.77,252.88l21.44-2.4v7.37l-13.34,1.49V273.7l10.47-1.17v7.37l-10.47,1.17v22.47l-8.1.9Z"/><path class="cls-2" d="M361.11,250.05l21.44-2.39V255l-13.33,1.49v14.36l10.46-1.16v7.36l-10.46,1.17v22.47l-8.11.9Z"/><path class="cls-2" d="M299.78,183.67V157c0-11,5.64-17.68,16.14-18.86s16.15,4.29,16.15,15.26v26.65c0,11-5.64,17.68-16.15,18.85S299.78,194.63,299.78,183.67ZM321.41,182V153.85c0-4.72-2.13-6.47-5.49-6.09s-5.48,2.59-5.48,7.31v28.17c0,4.72,2,6.48,5.48,6.09S321.41,186.74,321.41,182Zm33.2-46.65,10.66-1.19L324,245.38l-10.66,1.19Zm-8.08,92V200.69c0-11,5.64-17.69,16.15-18.86s16.14,4.29,16.14,15.25v26.65c0,11-5.64,17.68-16.14,18.86S346.53,238.3,346.53,227.33Zm21.63-1.65V197.51c0-4.72-2.13-6.46-5.48-6.09-3.51.39-5.49,2.59-5.49,7.31v28.18c0,4.72,2,6.48,5.49,6.08C366,232.62,368.16,230.4,368.16,225.68Z"/></svg>